<?xml version="1.0" encoding="utf-8"?>
<!-- Generator: Adobe Illustrator 15.1.0, SVG Export Plug-In . SVG Version: 6.00 Build 0)  -->
<!DOCTYPE svg PUBLIC "-//W3C//DTD SVG 1.1//EN" "http://www.w3.org/Graphics/SVG/1.1/DTD/svg11.dtd">
<svg version="1.1" id="Layer_1" xmlns="http://www.w3.org/2000/svg" xmlns:xlink="http://www.w3.org/1999/xlink" x="0px" y="0px"
	 width="439.342px" height="157.321px" viewBox="-39.782 27.355 439.342 157.321"
	 enable-background="new -39.782 27.355 439.342 157.321" xml:space="preserve">
<g>
	<path d="M39.789,129.661h22.438v9.983H39.789v36.375H27.928v-36.375h-67.709v-6.722L26.84,32.101h12.949V129.661z M-25.251,129.661
		h53.179v-82.24l-5.239,9.094L-25.251,129.661z"/>
</g>
<g>
	<path d="M377.123,129.661h22.438v9.983h-22.438v36.375h-11.861v-36.375h-67.71v-6.722l66.622-100.822h12.949V129.661z
		 M312.082,129.661h53.18v-82.24l-5.24,9.094L312.082,129.661z"/>
</g>
<g>
	<path d="M179.971,27.355c-43.373,0-78.66,35.287-78.66,78.661c0,43.373,35.287,78.66,78.66,78.66
		c43.374,0,78.661-35.287,78.661-78.66C258.632,62.643,223.345,27.355,179.971,27.355z M179.971,175.677
		c-38.411,0-69.66-31.249-69.66-69.66s31.249-69.661,69.66-69.661s69.661,31.25,69.661,69.661S218.382,175.677,179.971,175.677z"/>
	<circle cx="209.968" cy="85.519" r="9.685"/>
	<circle cx="152.4" cy="85.52" r="9.685"/>
	<path d="M182.978,122.779c-18.1,0.769-32.607,14.365-33.216,14.943l3.443,3.625c0.136-0.129,13.737-12.883,29.985-13.572
		c15.713-0.674,27.814,14.255,27.934,14.402l3.912-3.113C214.481,138.366,201.25,122.015,182.978,122.779z"/>
</g>
</svg>
